<svg id="Ebene_1" data-name="Ebene 1" xmlns="http://www.w3.org/2000/svg" xmlns:xlink="http://www.w3.org/1999/xlink" viewBox="0 0 500 500"><defs><style>.cls-1{fill:url(#Unbenannter_Verlauf_2);}.cls-2{fill:url(#Unbenannter_Verlauf_2-2);}</style><linearGradient id="Unbenannter_Verlauf_2" x1="-3408.03" y1="63" x2="-896.31" y2="63" gradientTransform="translate(-1401 313) rotate(180)" gradientUnits="userSpaceOnUse"><stop offset="0" stop-color="#95c11e"/><stop offset="0.03" stop-color="#81bb23"/><stop offset="0.11" stop-color="#4dac2e"/><stop offset="0.2" stop-color="#009640"/><stop offset="0.4" stop-color="#009ee3"/><stop offset="0.6" stop-color="#0069b4"/><stop offset="0.8" stop-color="#302683"/><stop offset="1" stop-color="#af1280"/></linearGradient><linearGradient id="Unbenannter_Verlauf_2-2" x1="-3408.03" y1="61.75" x2="-896.31" y2="61.75" xlink:href="#Unbenannter_Verlauf_2"/></defs><path class="cls-1" d="M250,0C112,0,0,112.2,0,250S112.2,500,250,500,499.87,387.93,500,250.24v-.48C499.87,112.07,387.72,0,250,0Zm-.2,469.2C129,469.2,30.6,371,30.6,250S129,30.8,250,30.8C370.8,30.8,469.21,129,469.21,250S370.6,469.2,249.8,469.2Z"/><path class="cls-2" d="M264,188.46a14,14,0,0,1,14-14h14V139.62H264a41.86,41.86,0,0,0-41.86,41.86v34.89H194.19v34.88H222.1V362.89H264V251.25h27.91l13.95-34.88H264Z"/></svg>