<svg id="Ebene_1" data-name="Ebene 1" xmlns="http://www.w3.org/2000/svg" xmlns:xlink="http://www.w3.org/1999/xlink" viewBox="0 0 500 500"><defs><style>.cls-1{fill:url(#Unbenannter_Verlauf_2);}.cls-2{fill:url(#Unbenannter_Verlauf_2-2);}.cls-3{fill:url(#Unbenannter_Verlauf_2-4);}</style><linearGradient id="Unbenannter_Verlauf_2" x1="-2912.69" y1="63" x2="-400.99" y2="63" gradientTransform="translate(-401 313) rotate(180)" gradientUnits="userSpaceOnUse"><stop offset="0" stop-color="#95c11e"/><stop offset="0.03" stop-color="#81bb23"/><stop offset="0.11" stop-color="#4dac2e"/><stop offset="0.2" stop-color="#009640"/><stop offset="0.4" stop-color="#009ee3"/><stop offset="0.6" stop-color="#0069b4"/><stop offset="0.8" stop-color="#302683"/><stop offset="1" stop-color="#af1280"/></linearGradient><linearGradient id="Unbenannter_Verlauf_2-2" x1="-2912.69" y1="61.75" x2="-400.99" y2="61.75" xlink:href="#Unbenannter_Verlauf_2"/><linearGradient id="Unbenannter_Verlauf_2-4" x1="-2912.69" y1="121.75" x2="-400.99" y2="121.75" xlink:href="#Unbenannter_Verlauf_2"/></defs><path class="cls-1" d="M250,0C112,0,0,112.2,0,250S112.2,500,250,500,500,387.8,500,250,387.8,0,250,0Zm-.2,469.2C129,469.2,30.6,371,30.6,250S129,30.8,250,30.8C370.8,30.8,469.2,129,469.2,250S370.6,469.2,249.8,469.2Z"/><path class="cls-2" d="M291.86,139.62H208.14a69.77,69.77,0,0,0-69.77,69.77v83.73a69.77,69.77,0,0,0,69.77,69.77h83.72a69.77,69.77,0,0,0,69.77-69.77V209.39A69.77,69.77,0,0,0,291.86,139.62Zm50.07,154.73a48.84,48.84,0,0,1-48.83,48.84H206.91a48.84,48.84,0,0,1-48.84-48.84V208.16a48.84,48.84,0,0,1,48.84-48.84H293.1a48.84,48.84,0,0,1,48.83,48.84Z"/><path class="cls-2" d="M246.72,195.44a55.82,55.82,0,1,0,55.81,55.81A55.82,55.82,0,0,0,246.72,195.44Zm0,90.7a34.89,34.89,0,1,1,34.88-34.89A34.94,34.94,0,0,1,246.72,286.14Z"/><path class="cls-3" d="M306.72,183.82a7.44,7.44,0,1,0,7.44,7.43A7.44,7.44,0,0,0,306.72,183.82Z"/></svg>